<svg width="42" height="21" viewBox="0 0 42 21" fill="none" xmlns="http://www.w3.org/2000/svg">
<rect x="0.25" y="0.013916" width="41" height="20" rx="6" fill="#3A5E46"/>
<path d="M12.2793 9.94751V10.551H9.47266V9.94751H12.2793ZM14.9922 9.36157H15.707C16.1445 9.36157 16.5098 9.28735 16.8027 9.13892C17.0996 8.98657 17.3223 8.7854 17.4707 8.5354C17.623 8.2854 17.6992 8.00806 17.6992 7.70337C17.6992 7.35962 17.6348 7.05884 17.5059 6.80103C17.377 6.53931 17.1797 6.33618 16.9141 6.19165C16.6523 6.04321 16.3164 5.96899 15.9062 5.96899C15.5469 5.96899 15.2266 6.03931 14.9453 6.17993C14.6641 6.32056 14.4414 6.52173 14.2773 6.78345C14.1133 7.04517 14.0312 7.35767 14.0312 7.72095H13.334C13.334 7.2561 13.4453 6.8479 13.668 6.49634C13.8906 6.14087 14.1973 5.86353 14.5879 5.66431C14.9785 5.46509 15.418 5.36548 15.9062 5.36548C16.4102 5.36548 16.8477 5.45728 17.2188 5.64087C17.5938 5.82446 17.8828 6.09204 18.0859 6.4436C18.293 6.79517 18.3965 7.2229 18.3965 7.72681C18.3965 7.98462 18.3398 8.23853 18.2266 8.48853C18.1172 8.73853 17.9531 8.96509 17.7344 9.16821C17.5156 9.36743 17.2441 9.52759 16.9199 9.64868C16.5957 9.76978 16.2188 9.83032 15.7891 9.83032H14.9922V9.36157ZM14.9922 9.96509V9.5022H15.7891C16.2773 9.5022 16.6953 9.55884 17.043 9.67212C17.3906 9.78149 17.6758 9.93774 17.8984 10.1409C18.125 10.3401 18.291 10.5725 18.3965 10.8381C18.502 11.1038 18.5547 11.3889 18.5547 11.6936C18.5547 12.0842 18.4902 12.4299 18.3613 12.7307C18.2324 13.0315 18.0488 13.2874 17.8105 13.4983C17.5762 13.7053 17.2988 13.8635 16.9785 13.9729C16.6621 14.0784 16.3145 14.1311 15.9355 14.1311C15.5918 14.1311 15.2559 14.0803 14.9277 13.9788C14.6035 13.8772 14.3105 13.7268 14.0488 13.5276C13.791 13.3245 13.5859 13.0706 13.4336 12.7659C13.2812 12.4573 13.2051 12.1018 13.2051 11.6995H13.9023C13.9023 12.0588 13.9883 12.3772 14.1602 12.6545C14.332 12.928 14.5703 13.1428 14.875 13.2991C15.1836 13.4514 15.5371 13.5276 15.9355 13.5276C16.3379 13.5276 16.6816 13.4592 16.9668 13.3225C17.2559 13.1819 17.4766 12.9768 17.6289 12.7073C17.7812 12.4377 17.8574 12.1077 17.8574 11.717C17.8574 11.3069 17.7656 10.9729 17.582 10.7151C17.4023 10.4573 17.1504 10.2678 16.8262 10.1467C16.5059 10.0256 16.1328 9.96509 15.707 9.96509H14.9922ZM25.2285 9.01587V10.4514C25.2285 11.0764 25.1699 11.6213 25.0527 12.0862C24.9355 12.5471 24.7637 12.9299 24.5371 13.2346C24.3145 13.5354 24.041 13.76 23.7168 13.9084C23.3965 14.0569 23.0293 14.1311 22.6152 14.1311C22.2871 14.1311 21.9863 14.0842 21.7129 13.9905C21.4395 13.8967 21.1953 13.7542 20.9805 13.5627C20.7695 13.3674 20.5898 13.1233 20.4414 12.8303C20.293 12.5374 20.1797 12.1936 20.1016 11.7991C20.0234 11.4006 19.9844 10.9514 19.9844 10.4514V9.01587C19.9844 8.38696 20.043 7.84399 20.1602 7.38696C20.2812 6.92993 20.4531 6.55103 20.6758 6.25024C20.9023 5.94946 21.1777 5.72681 21.502 5.58228C21.8262 5.43384 22.1934 5.35962 22.6035 5.35962C22.9316 5.35962 23.2324 5.40845 23.5059 5.5061C23.7832 5.59985 24.0273 5.74048 24.2383 5.92798C24.4531 6.11548 24.6328 6.35571 24.7773 6.64868C24.9258 6.93774 25.0371 7.27954 25.1113 7.67407C25.1895 8.0686 25.2285 8.51587 25.2285 9.01587ZM24.5312 10.5334V8.92798C24.5312 8.54126 24.5039 8.1897 24.4492 7.87329C24.3984 7.55688 24.3223 7.27954 24.2207 7.04126C24.1191 6.80298 23.9902 6.60376 23.834 6.4436C23.6816 6.28345 23.502 6.16431 23.2949 6.08618C23.0918 6.00415 22.8613 5.96313 22.6035 5.96313C22.2871 5.96313 22.0078 6.02759 21.7656 6.15649C21.5273 6.28149 21.3281 6.46899 21.168 6.71899C21.0078 6.96509 20.8867 7.27368 20.8047 7.64478C20.7266 8.01587 20.6875 8.4436 20.6875 8.92798V10.5334C20.6875 10.9163 20.7129 11.2659 20.7637 11.5823C20.8145 11.8948 20.8926 12.1721 20.998 12.4143C21.1035 12.6565 21.2324 12.8616 21.3848 13.0295C21.541 13.1936 21.7207 13.3186 21.9238 13.4045C22.1309 13.4866 22.3613 13.5276 22.6152 13.5276C22.9395 13.5276 23.2207 13.4631 23.459 13.3342C23.6973 13.2014 23.8965 13.0081 24.0566 12.7542C24.2168 12.4963 24.3359 12.1819 24.4141 11.8108C24.4922 11.4358 24.5312 11.01 24.5312 10.5334ZM26.582 7.57446V7.12329C26.582 6.79907 26.6504 6.50415 26.7871 6.23853C26.9238 5.9729 27.1172 5.76001 27.3672 5.59985C27.6172 5.4397 27.9102 5.35962 28.2461 5.35962C28.5898 5.35962 28.8848 5.4397 29.1309 5.59985C29.3809 5.76001 29.5742 5.9729 29.7109 6.23853C29.8477 6.50415 29.916 6.79907 29.916 7.12329V7.57446C29.916 7.89087 29.8477 8.18188 29.7109 8.44751C29.5781 8.71313 29.3867 8.92603 29.1367 9.08618C28.8906 9.24634 28.5977 9.32642 28.2578 9.32642C27.918 9.32642 27.6211 9.24634 27.3672 9.08618C27.1172 8.92603 26.9238 8.71313 26.7871 8.44751C26.6504 8.18188 26.582 7.89087 26.582 7.57446ZM27.1445 7.12329V7.57446C27.1445 7.78149 27.1836 7.98071 27.2617 8.17212C27.3438 8.35962 27.4668 8.51392 27.6309 8.63501C27.7988 8.7561 28.0078 8.81665 28.2578 8.81665C28.5078 8.81665 28.7129 8.75806 28.873 8.64087C29.0332 8.51978 29.1523 8.36548 29.2305 8.17798C29.3125 7.98657 29.3535 7.7854 29.3535 7.57446V7.12329C29.3535 6.90845 29.3125 6.70728 29.2305 6.51978C29.1523 6.32837 29.0312 6.17212 28.8672 6.05103C28.7031 5.92993 28.4961 5.86938 28.2461 5.86938C28.0039 5.86938 27.8008 5.92993 27.6367 6.05103C27.4727 6.17212 27.3496 6.32837 27.2676 6.51978C27.1855 6.70728 27.1445 6.90845 27.1445 7.12329ZM30.8711 12.3792V11.9221C30.8711 11.6018 30.9395 11.3088 31.0762 11.0432C31.2129 10.7776 31.4062 10.5647 31.6562 10.4045C31.9062 10.2444 32.2012 10.1643 32.541 10.1643C32.8848 10.1643 33.1797 10.2444 33.4258 10.4045C33.6758 10.5647 33.8691 10.7776 34.0059 11.0432C34.1426 11.3088 34.2109 11.6018 34.2109 11.9221V12.3792C34.2109 12.6995 34.1426 12.9924 34.0059 13.2581C33.873 13.5237 33.6816 13.7366 33.4316 13.8967C33.1855 14.0569 32.8926 14.137 32.5527 14.137C32.209 14.137 31.9121 14.0569 31.6621 13.8967C31.4121 13.7366 31.2168 13.5237 31.0762 13.2581C30.9395 12.9924 30.8711 12.6995 30.8711 12.3792ZM31.4395 11.9221V12.3792C31.4395 12.5901 31.4785 12.7913 31.5566 12.9827C31.6387 13.1702 31.7617 13.3245 31.9258 13.4456C32.0938 13.5667 32.3027 13.6272 32.5527 13.6272C32.7988 13.6272 33.002 13.5686 33.1621 13.4514C33.3262 13.3303 33.4473 13.1741 33.5254 12.9827C33.6074 12.7913 33.6484 12.5901 33.6484 12.3792V11.9221C33.6484 11.6995 33.6074 11.4944 33.5254 11.3069C33.4473 11.1155 33.3262 10.9631 33.1621 10.8499C32.998 10.7327 32.791 10.6741 32.541 10.6741C32.2988 10.6741 32.0938 10.7327 31.9258 10.8499C31.7617 10.9631 31.6387 11.1155 31.5566 11.3069C31.4785 11.4944 31.4395 11.6995 31.4395 11.9221ZM32.6465 6.63696L28.4805 13.3049L28.0469 13.0237L32.2129 6.35571L32.6465 6.63696Z" fill="white"/>
</svg>
