<svg width="41" height="41" viewBox="0 0 41 41" fill="none" xmlns="http://www.w3.org/2000/svg">
<rect x="0.5" y="0.013916" width="40" height="40" rx="6" fill="#FDDE67"/>
<g clip-path="url(#clip0_76_71)">
<path d="M28.5347 14.0717C28.3238 13.8185 28.0597 13.6149 27.7612 13.4753C27.4626 13.3357 27.137 13.2635 26.8075 13.2639H14.6815L14.65 13.0007C14.5855 12.4535 14.3225 11.949 13.9109 11.5828C13.4992 11.2166 12.9675 11.0142 12.4165 11.0139H12.25C12.0511 11.0139 11.8603 11.0929 11.7197 11.2336C11.579 11.3742 11.5 11.565 11.5 11.7639C11.5 11.9628 11.579 12.1536 11.7197 12.2942C11.8603 12.4349 12.0511 12.5139 12.25 12.5139H12.4165C12.6002 12.5139 12.7775 12.5814 12.9148 12.7035C13.0521 12.8255 13.1398 12.9937 13.1612 13.1762L14.1933 21.9512C14.3004 22.8638 14.7389 23.7053 15.4254 24.3159C16.112 24.9266 16.9989 25.2639 17.9178 25.2639H25.75C25.9489 25.2639 26.1397 25.1849 26.2803 25.0442C26.421 24.9036 26.5 24.7128 26.5 24.5139C26.5 24.315 26.421 24.1242 26.2803 23.9836C26.1397 23.8429 25.9489 23.7639 25.75 23.7639H17.9178C17.4535 23.7626 17.0011 23.6178 16.6225 23.3492C16.2438 23.0807 15.9575 22.7016 15.8028 22.2639H24.7428C25.622 22.264 26.4733 21.9551 27.1479 21.3912C27.8225 20.8274 28.2775 20.0444 28.4335 19.1792L29.0223 15.9137C29.081 15.5897 29.0678 15.2567 28.9836 14.9384C28.8993 14.6201 28.7461 14.3242 28.5347 14.0717ZM27.55 15.6474L26.9605 18.9129C26.8668 19.4327 26.5934 19.9029 26.1879 20.2413C25.7824 20.5797 25.2709 20.7647 24.7428 20.7639H15.5642L14.8585 14.7639H26.8075C26.9177 14.7633 27.0266 14.7869 27.1267 14.8331C27.2267 14.8793 27.3153 14.947 27.3861 15.0314C27.457 15.1157 27.5085 15.2146 27.5368 15.3211C27.5651 15.4276 27.5696 15.539 27.55 15.6474Z" fill="#181818"/>
<path d="M16.7501 29.0144C17.5785 29.0144 18.2501 28.3428 18.2501 27.5144C18.2501 26.686 17.5785 26.0144 16.7501 26.0144C15.9217 26.0144 15.2501 26.686 15.2501 27.5144C15.2501 28.3428 15.9217 29.0144 16.7501 29.0144Z" fill="#181818"/>
<path d="M24.25 29.0144C25.0784 29.0144 25.75 28.3428 25.75 27.5144C25.75 26.686 25.0784 26.0144 24.25 26.0144C23.4216 26.0144 22.75 26.686 22.75 27.5144C22.75 28.3428 23.4216 29.0144 24.25 29.0144Z" fill="#181818"/>
</g>
<defs>
<clipPath id="clip0_76_71">
<rect width="18" height="18" fill="white" transform="translate(11.5 11.0139)"/>
</clipPath>
</defs>
</svg>
