<svg width="36" height="37" viewBox="0 0 36 37" fill="none" xmlns="http://www.w3.org/2000/svg">
<path d="M8.66662 19.5927L22 19.5927L17.6133 23.9793C17.4883 24.1033 17.3891 24.2507 17.3214 24.4132C17.2537 24.5757 17.2189 24.75 17.2189 24.926C17.2189 25.102 17.2537 25.2763 17.3214 25.4388C17.3891 25.6012 17.4883 25.7487 17.6133 25.8727C17.8631 26.121 18.201 26.2604 18.5533 26.2604C18.9055 26.2604 19.2435 26.121 19.4933 25.8727L25.2133 20.1393C25.7141 19.6415 25.997 18.9654 26 18.2593C25.9935 17.5579 25.7108 16.8872 25.2133 16.3927L19.4933 10.6593C19.369 10.5359 19.2216 10.4381 19.0595 10.3717C18.8974 10.3052 18.7238 10.2713 18.5486 10.2719C18.3734 10.2725 18.2 10.3077 18.0384 10.3753C17.8768 10.4429 17.7301 10.5417 17.6066 10.666C17.4832 10.7903 17.3854 10.9377 17.319 11.0998C17.2525 11.2619 17.2186 11.4355 17.2192 11.6107C17.2198 11.7859 17.255 11.9593 17.3226 12.1209C17.3902 12.2825 17.489 12.4292 17.6133 12.5527L22 16.926L8.66662 16.926C8.313 16.926 7.97386 17.0665 7.72381 17.3165C7.47376 17.5666 7.33329 17.9057 7.33329 18.2593C7.33329 18.6129 7.47376 18.9521 7.72381 19.2021C7.97386 19.4522 8.313 19.5927 8.66662 19.5927Z" fill="white"/>
<rect x="35" y="35.2593" width="34" height="34" rx="17" transform="rotate(-180 35 35.2593)" stroke="white" stroke-width="2"/>
</svg>
