<svg width="36" height="37" viewBox="0 0 36 37" fill="none" xmlns="http://www.w3.org/2000/svg">
<g opacity="0.3">
<path d="M27.3333 17.1666H14L18.3867 12.78C18.5116 12.656 18.6108 12.5086 18.6785 12.3461C18.7462 12.1836 18.7811 12.0093 18.7811 11.8333C18.7811 11.6573 18.7462 11.483 18.6785 11.3206C18.6108 11.1581 18.5116 11.0106 18.3867 10.8867C18.1368 10.6383 17.7989 10.4989 17.4467 10.4989C17.0944 10.4989 16.7565 10.6383 16.5067 10.8867L10.7867 16.62C10.2859 17.1178 10.003 17.7939 10 18.5C10.0065 19.2015 10.2891 19.8721 10.7867 20.3666L16.5067 26.1C16.631 26.2234 16.7784 26.3212 16.9405 26.3876C17.1026 26.4541 17.2762 26.488 17.4514 26.4874C17.6266 26.4868 17.7999 26.4516 17.9615 26.384C18.1232 26.3164 18.2699 26.2176 18.3933 26.0933C18.5168 25.969 18.6145 25.8216 18.681 25.6595C18.7475 25.4974 18.7814 25.3238 18.7807 25.1486C18.7801 24.9734 18.745 24.8 18.6774 24.6384C18.6098 24.4768 18.511 24.3301 18.3867 24.2066L14 19.8333H27.3333C27.687 19.8333 28.0261 19.6928 28.2761 19.4428C28.5262 19.1927 28.6667 18.8536 28.6667 18.5C28.6667 18.1464 28.5262 17.8072 28.2761 17.5572C28.0261 17.3071 27.687 17.1666 27.3333 17.1666Z" fill="white"/>
<rect x="1" y="1.5" width="34" height="34" rx="17" stroke="white" stroke-width="2"/>
</g>
</svg>
