<svg width="25" height="25" viewBox="0 0 25 25" fill="none" xmlns="http://www.w3.org/2000/svg">
<g clip-path="url(#clip0_76_83)">
<path d="M18 1.93042C16.8739 1.94793 15.7724 2.26227 14.8068 2.84169C13.8411 3.42111 13.0453 4.24509 12.5 5.23042C11.9546 4.24509 11.1589 3.42111 10.1932 2.84169C9.22753 2.26227 8.12604 1.94793 6.99999 1.93042C5.20493 2.00841 3.51369 2.79367 2.29577 4.11465C1.07785 5.43563 0.432238 7.18495 0.499989 8.98042C0.499989 13.5274 5.28599 18.4934 9.29999 21.8604C10.1962 22.6136 11.3293 23.0264 12.5 23.0264C13.6706 23.0264 14.8038 22.6136 15.7 21.8604C19.714 18.4934 24.5 13.5274 24.5 8.98042C24.5677 7.18495 23.9221 5.43563 22.7042 4.11465C21.4863 2.79367 19.795 2.00841 18 1.93042Z" fill="#181818"/>
</g>
<defs>
<clipPath id="clip0_76_83">
<rect width="24" height="24" fill="white" transform="translate(0.5 0.013916)"/>
</clipPath>
</defs>
</svg>
