<svg width="25" height="25" viewBox="0 0 25 25" fill="none" xmlns="http://www.w3.org/2000/svg">
<g clip-path="url(#clip0_76_65)">
<path d="M18.25 1.93042C17.1239 1.94793 16.0224 2.26227 15.0568 2.84169C14.0911 3.42111 13.2953 4.24509 12.75 5.23042C12.2046 4.24509 11.4089 3.42111 10.4432 2.84169C9.47753 2.26227 8.37604 1.94793 7.24999 1.93042C5.45493 2.00841 3.76369 2.79367 2.54577 4.11465C1.32785 5.43563 0.682238 7.18495 0.749989 8.98042C0.749989 13.5274 5.53599 18.4934 9.54999 21.8604C10.4462 22.6136 11.5793 23.0264 12.75 23.0264C13.9206 23.0264 15.0538 22.6136 15.95 21.8604C19.964 18.4934 24.75 13.5274 24.75 8.98042C24.8177 7.18495 24.1721 5.43563 22.9542 4.11465C21.7363 2.79367 20.045 2.00841 18.25 1.93042ZM14.665 20.3304C14.129 20.7818 13.4507 21.0293 12.75 21.0293C12.0492 21.0293 11.371 20.7818 10.835 20.3304C5.69699 16.0194 2.74999 11.8834 2.74999 8.98042C2.68163 7.71514 3.11635 6.47415 3.95935 5.52812C4.80235 4.58209 5.98522 4.00777 7.24999 3.93042C8.51476 4.00777 9.69763 4.58209 10.5406 5.52812C11.3836 6.47415 11.8183 7.71514 11.75 8.98042C11.75 9.24564 11.8553 9.49999 12.0429 9.68753C12.2304 9.87506 12.4848 9.98042 12.75 9.98042C13.0152 9.98042 13.2696 9.87506 13.4571 9.68753C13.6446 9.49999 13.75 9.24564 13.75 8.98042C13.6816 7.71514 14.1164 6.47415 14.9594 5.52812C15.8023 4.58209 16.9852 4.00777 18.25 3.93042C19.5148 4.00777 20.6976 4.58209 21.5406 5.52812C22.3836 6.47415 22.8183 7.71514 22.75 8.98042C22.75 11.8834 19.803 16.0194 14.665 20.3264V20.3304Z" fill="#181818"/>
</g>
<defs>
<clipPath id="clip0_76_65">
<rect width="24" height="24" fill="white" transform="translate(0.75 0.013916)"/>
</clipPath>
</defs>
</svg>
