<svg width="111" height="111" viewBox="0 0 111 111" fill="none" xmlns="http://www.w3.org/2000/svg">
<rect x="0.154556" y="0.629669" width="110" height="110" rx="55" fill="#FDDE67"/>
<path d="M44.8333 42.7234V45.5926H31.5159L31.3382 43.3709L39.0442 31.1453H41.9514L38.803 36.4138L34.969 42.7234H44.8333ZM42.7385 31.1453V49.6297H39.0823V31.1453H42.7385ZM59.2551 38.7625V41.9617C59.2551 43.3497 59.107 44.5473 58.8108 45.5545C58.5146 46.5532 58.0872 47.3741 57.5286 48.0174C56.9784 48.6521 56.3225 49.1219 55.5608 49.4265C54.7991 49.7312 53.9527 49.8836 53.0217 49.8836C52.277 49.8836 51.5829 49.7905 50.9397 49.6043C50.2965 49.4096 49.7167 49.1092 49.2005 48.7029C48.6926 48.2967 48.2525 47.7846 47.8801 47.1668C47.5162 46.5405 47.2369 45.7957 47.0423 44.9324C46.8476 44.0691 46.7503 43.0789 46.7503 41.9617V38.7625C46.7503 37.3745 46.8984 36.1853 47.1946 35.1951C47.4993 34.1964 47.9267 33.3797 48.4768 32.7449C49.0354 32.1101 49.6956 31.6446 50.4573 31.3484C51.219 31.0437 52.0654 30.8914 52.9964 30.8914C53.7411 30.8914 54.4309 30.9887 55.0657 31.1834C55.7089 31.3696 56.2887 31.6616 56.8049 32.0594C57.3212 32.4571 57.7613 32.9692 58.1253 33.5955C58.4892 34.2133 58.7685 34.9539 58.9632 35.8172C59.1578 36.672 59.2551 37.6538 59.2551 38.7625ZM55.5862 42.4441V38.2674C55.5862 37.5987 55.5481 37.0148 55.4719 36.5154C55.4042 36.0161 55.2984 35.5929 55.1546 35.2459C55.0107 34.8904 54.8329 34.6027 54.6214 34.3826C54.4098 34.1625 54.1686 34.0017 53.8977 33.9002C53.6269 33.7986 53.3264 33.7478 52.9964 33.7478C52.5816 33.7478 52.2135 33.8282 51.8919 33.989C51.5787 34.1499 51.3121 34.408 51.0921 34.7635C50.872 35.1105 50.7027 35.576 50.5842 36.1599C50.4742 36.7355 50.4192 37.4379 50.4192 38.2674V42.4441C50.4192 43.1127 50.4531 43.701 50.5208 44.2088C50.5969 44.7166 50.707 45.1525 50.8508 45.5164C51.0032 45.8719 51.1809 46.1638 51.384 46.3924C51.5956 46.6124 51.8368 46.7732 52.1077 46.8748C52.387 46.9763 52.6917 47.0271 53.0217 47.0271C53.428 47.0271 53.7877 46.9467 54.1008 46.7859C54.4225 46.6166 54.6933 46.3543 54.9133 45.9988C55.1419 45.6349 55.3111 45.1609 55.4212 44.5769C55.5312 43.993 55.5862 43.282 55.5862 42.4441ZM61.6926 35.6775V34.7C61.6926 33.9975 61.845 33.3585 62.1497 32.783C62.4544 32.2075 62.9029 31.7462 63.4954 31.3992C64.0878 31.0522 64.8157 30.8787 65.679 30.8787C66.5676 30.8787 67.3082 31.0522 67.9007 31.3992C68.5016 31.7462 68.9501 32.2075 69.2464 32.783C69.551 33.3585 69.7034 33.9975 69.7034 34.7V35.6775C69.7034 36.3631 69.551 36.9936 69.2464 37.5691C68.9501 38.1446 68.5058 38.6059 67.9133 38.9529C67.3209 39.2999 66.5888 39.4734 65.7171 39.4734C64.8368 39.4734 64.0963 39.2999 63.4954 38.9529C62.9029 38.6059 62.4544 38.1446 62.1497 37.5691C61.845 36.9936 61.6926 36.3631 61.6926 35.6775ZM64.1174 34.7V35.6775C64.1174 35.9737 64.1725 36.2573 64.2825 36.5281C64.401 36.7905 64.5787 37.0063 64.8157 37.1756C65.0611 37.3364 65.3574 37.4168 65.7044 37.4168C66.0683 37.4168 66.3645 37.3364 66.593 37.1756C66.8215 37.0063 66.9908 36.7905 67.1008 36.5281C67.2109 36.2573 67.2659 35.9737 67.2659 35.6775V34.7C67.2659 34.3868 67.2066 34.0991 67.0882 33.8367C66.9781 33.5659 66.8046 33.35 66.5676 33.1892C66.3391 33.02 66.0429 32.9353 65.679 32.9353C65.3404 32.9353 65.0527 33.02 64.8157 33.1892C64.5787 33.35 64.401 33.5659 64.2825 33.8367C64.1725 34.0991 64.1174 34.3868 64.1174 34.7ZM70.5286 46.075V45.0974C70.5286 44.4034 70.6809 43.7687 70.9856 43.1931C71.2988 42.6176 71.7516 42.1564 72.344 41.8094C72.9449 41.4624 73.6812 41.2888 74.553 41.2888C75.4332 41.2888 76.1695 41.4624 76.762 41.8094C77.3544 42.1564 77.803 42.6176 78.1077 43.1931C78.4124 43.7687 78.5647 44.4034 78.5647 45.0974V46.075C78.5647 46.769 78.4124 47.4038 78.1077 47.9793C77.8115 48.5548 77.3671 49.0161 76.7747 49.3631C76.1822 49.7101 75.4501 49.8836 74.5784 49.8836C73.6982 49.8836 72.9576 49.7101 72.3567 49.3631C71.7558 49.0161 71.2988 48.5548 70.9856 47.9793C70.6809 47.4038 70.5286 46.769 70.5286 46.075ZM72.9661 45.0974V46.075C72.9661 46.3797 73.0338 46.6674 73.1692 46.9383C73.3046 47.2091 73.4908 47.4249 73.7278 47.5857C73.9732 47.7465 74.2568 47.8269 74.5784 47.8269C74.9846 47.8269 75.302 47.7465 75.5305 47.5857C75.759 47.4249 75.9156 47.2091 76.0003 46.9383C76.0934 46.6674 76.1399 46.3797 76.1399 46.075V45.0974C76.1399 44.7928 76.0807 44.5092 75.9622 44.2469C75.8437 43.976 75.6659 43.7602 75.429 43.5994C75.2005 43.4301 74.9085 43.3455 74.553 43.3455C74.1975 43.3455 73.9013 43.4301 73.6643 43.5994C73.4358 43.7602 73.2623 43.976 73.1438 44.2469C73.0253 44.5092 72.9661 44.7928 72.9661 45.0974ZM75.4544 33.7859L66.428 48.2332L64.6507 47.2937L73.677 32.8465L75.4544 33.7859ZM48.7561 69.9558V70.8318C48.7561 72.2368 48.5657 73.4978 48.1848 74.615C47.804 75.7322 47.2665 76.6844 46.5725 77.4715C45.8785 78.2501 45.0491 78.8468 44.0842 79.2615C43.1279 79.6762 42.0657 79.8836 40.8977 79.8836C39.7382 79.8836 38.676 79.6762 37.7112 79.2615C36.7548 78.8468 35.9254 78.2501 35.2229 77.4715C34.5204 76.6844 33.9745 75.7322 33.5852 74.615C33.2044 73.4978 33.0139 72.2368 33.0139 70.8318V69.9558C33.0139 68.5424 33.2044 67.2814 33.5852 66.1726C33.9661 65.0555 34.5035 64.1033 35.1975 63.3162C35.9 62.5291 36.7294 61.9282 37.6858 61.5135C38.6507 61.0987 39.7128 60.8914 40.8723 60.8914C42.0403 60.8914 43.1025 61.0987 44.0589 61.5135C45.0237 61.9282 45.8531 62.5291 46.5471 63.3162C47.2496 64.1033 47.7913 65.0555 48.1721 66.1726C48.5615 67.2814 48.7561 68.5424 48.7561 69.9558ZM44.9094 70.8318V69.9305C44.9094 68.9487 44.8206 68.0854 44.6428 67.3406C44.4651 66.5958 44.2027 65.9695 43.8557 65.4617C43.5087 64.9539 43.0855 64.573 42.5862 64.3191C42.0868 64.0568 41.5156 63.9256 40.8723 63.9256C40.2291 63.9256 39.6578 64.0568 39.1585 64.3191C38.6676 64.573 38.2486 64.9539 37.9016 65.4617C37.5631 65.9695 37.3049 66.5958 37.1272 67.3406C36.9495 68.0854 36.8606 68.9487 36.8606 69.9305V70.8318C36.8606 71.8051 36.9495 72.6684 37.1272 73.4217C37.3049 74.1665 37.5673 74.797 37.9143 75.3133C38.2613 75.8211 38.6845 76.2062 39.1839 76.4685C39.6832 76.7309 40.2545 76.8621 40.8977 76.8621C41.5409 76.8621 42.1122 76.7309 42.6116 76.4685C43.1109 76.2062 43.5299 75.8211 43.8684 75.3133C44.207 74.797 44.4651 74.1665 44.6428 73.4217C44.8206 72.6684 44.9094 71.8051 44.9094 70.8318ZM55.3069 61.1453V79.6297H51.4983V61.1453H55.3069ZM62.6702 69.0418V72.0125H54.2659V69.0418H62.6702ZM63.5589 61.1453V64.1287H54.2659V61.1453H63.5589ZM69.5764 61.1453V79.6297H65.7678V61.1453H69.5764ZM76.9397 69.0418V72.0125H68.5354V69.0418H76.9397ZM77.8284 61.1453V64.1287H68.5354V61.1453H77.8284Z" fill="#181818"/>
</svg>
